<?xml version="1.0" encoding="UTF-8"?>
<svg id="Layer_1" data-name="Layer 1" xmlns="http://www.w3.org/2000/svg" viewBox="0 0 1550.13 512.11">
  <path d="m525.77,107.86c-1.39,15.39-3.06,30.77-4.02,46.18-.37,5.92,1.2,11.94,1.35,17.93.55,22.32,3.23,44.91.77,66.92-4.7,41.9-4.34,83.78-4.61,125.74-.15,23.4-1.72,46.8-3.06,70.18-.24,4.27-2.28,8.49-3.8,12.62-2.66,7.21-7.94,10.96-15.68,11.46-35.29,2.28-70.6,4.34-105.85,7.05-24.68,1.9-49.33,4.37-73.89,7.4-6.25.77-12.51,3.98-18.08,7.23-12.88,7.51-35.17,1.07-40.08-12.96-3.34-9.54-5.47-19.65-6.92-29.69-4.3-29.72-4-59.85.91-89.13,5.36-32,5.84-64.17,8.63-96.24,1.48-17.01,2.26-34.13,2.3-51.2.04-14.53-3.21-29.24-1.81-43.56,1.97-20.15,7.15-39.96,10.43-60,1.14-6.98,1.64-14.33.78-21.3-.72-5.86,1.14-7.22,6.24-7.78,45.28-4.98,90.22-12.63,135.89-14.55,25.02-1.05,49.96-4.98,74.81-8.5,12.64-1.79,20.76,3.35,26.94,13.27,6.3,10.11,9.06,21.27,8.8,33.15-.11,5.25-.47,10.49-.71,15.74.22.02.45.04.67.06Zm-54.3,294.98c0-42.88-.1-84.52.09-126.16.04-7.94,1.08-15.9,1.95-23.81,1.45-13.16,4.03-26.27,4.53-39.45,1.16-30.83,1.33-61.69,1.98-92.54.15-7.25-2.75-10.49-10.41-10.16-24.83,1.07-49.68,1.63-74.5,2.71-2.24.1-5.19,1.96-6.42,3.89-4.56,7.15-11.24,10.9-19.16,11.65-11.79,1.12-23.67,1.43-35.53,1.67-7.24.15-11.86,3.65-13.03,10.31-1.81,10.3-3.18,20.73-3.77,31.17-2.27,40.07,2.66,80.1-5.79,120.4-6.62,31.54-5.9,64.72-7.4,97.22-1.01,21.83.23,21.54,22.02,19.57,31.06-2.81,62.22-4.73,93.37-6.31,16.49-.84,33.06-.15,52.07-.15Z"/>
  <path d="m626.2,145.22c0,6.64-.42,11.75.07,16.77,2.7,27.74,7.13,55.41,8.1,83.21,1.22,34.72-.31,69.55-.71,104.33-.07,6.34.08,12.74-.74,19-1.05,8.04-1.18,17.07-5.16,23.54-2.64,4.28-11.24,6.19-17.38,6.71-8.63.73-16.72-8.8-17.17-17.45-2.26-42.96-4.02-85.96-7.26-128.84-1.87-24.72-3.25-50.14-10.24-73.64-7-23.54-5.24-46.71-6.72-70.12-.19-2.96-2.78-6.63-5.34-8.41-6.77-4.69-10.16-11.05-10.46-18.82-.43-10.9-1.38-22.05.36-32.68,1.58-9.67,9.99-13.45,19.16-9.24,11.74,5.38,23.37,11.46,33.99,18.77,48.03,33.07,95.68,66.68,143.49,100.07,1.79,1.25,3.74,2.27,6.35,3.84,3.2-6.95,5.75-13.87,9.41-20.15,9.04-15.5,19.1-30.42,27.75-46.13,6.07-11.02,10.23-23.08,15.75-34.43,4.04-8.3,8.04-16.86,13.62-24.11,6.31-8.2,14.45-8.56,22.58-2.03,4.21,3.38,8.34,7.64,10.67,12.4,4.95,10.14,9.59,20.6,12.76,31.4,12.42,42.28,23.24,85.04,36.49,127.05,16.01,50.78,18.32,102.42,14.6,154.89-1.58,22.31-1.99,44.69-3.4,67.01-.8,12.78-11.39,20-23.93,17.13-12.74-2.91-20.31-14.44-19.73-27.54.82-18.46.72-36.97.75-55.47.05-26.76,1.34-53.63-.74-80.23-1.38-17.64-7.75-34.9-11.86-52.33-5.33-22.61-10.27-45.32-16.11-67.8-2.8-10.77-7.27-21.1-10.99-31.62-1.42-1.04-2.83-2.09-4.25-3.13-.75,2.46-1.07,5.18-2.33,7.34-8.91,15.25-18.66,30.04-26.76,45.7-3.48,6.74-4.37,15.12-5.14,22.88-.84,8.49-.39,17.13-.14,25.69.24,7.81-4.35,13.21-10.88,13.25-14.78.1-30.16-.08-41.06-12.96-1.56-1.85-3.67-4.3-3.53-6.33.63-8.95-5.46-12.35-11.74-16.17-32.06-19.52-64.01-39.22-96.03-58.82-1.14-.7-2.49-1.05-6.1-2.52Z"/>
  <path d="m66.47,216.79c12.66,1.26,22.99,2.46,33.35,3.29,15.43,1.24,30.88,2.93,46.33,2.96,6.21.01,12.65-3.41,18.5-6.26,1.54-.75,2.36-5.45,1.69-7.82-2.15-7.69-4.91-15.22-7.86-22.65-3.89-9.82-4.36-19.53-2.42-30.01,2.59-14.05,3.16-28.46,5.48-42.56,1.95-11.85,3.75-24.06,8.21-35.06,4.78-11.78,18.88-14.3,29.51-7.19,12.43,8.32,17.53,19.91,18.57,34.96,4.17,60.2,3.28,120.4,1.27,180.61-.8,24-1.74,48.02-3.39,71.97-.75,10.96-3.96,21.73-5.02,32.69-1.64,16.99-2.14,34.1-3.67,51.1-.58,6.43-2.72,12.73-4.12,19.09-.82,3.73-1.85,7.44-2.28,11.22-.86,7.68-.95,15.46-2.16,23.07-1.25,7.85-5.16,14.29-13.89,15.46-8.83,1.18-18.17.6-22.62-8.25-5.14-10.23-10.38-21.1-12.08-32.23-3.9-25.57-.3-50.94,5.04-76.27,3.79-17.99,5.35-36.57,6.47-54.97.97-15.96-.16-32.05-.21-48.08-.02-5.19-1.69-7.81-7.42-8.73-28.21-4.53-56.16-2.55-84.1,2.2-6.13,1.04-9.23,4.36-9.67,10.37-.7,9.64-2.39,19.35-1.82,28.92,1.9,31.82-6.42,62.53-9.16,93.83-.63,7.15-1.41,14.28-1.85,21.44-.45,7.23-4.08,11.88-10.85,14.04-7.59,2.42-15.64,4.1-21.83-2.36-9.92-10.35-15.37-23.05-14.37-37.51,1.26-18.16,3.77-36.23,5.26-54.38,1.89-23.08,5.72-46.38,4.01-69.23-1.11-14.84,2.07-28.46,2.89-42.64.76-13.23.67-26.63,2.83-39.64,5.22-31.4,11.06-62.72,17.6-93.87,3.6-17.14,9.06-33.9,13.83-50.79,1.64-5.82,3.28-11.72,5.7-17.24,3.84-8.75,13.67-12.84,22.81-10.14,16.94,5.01,28.25,20.66,24.69,37.87-5.52,26.68-13,52.95-19.27,79.49-4.85,20.5-9.12,41.13-14,63.32Z"/>
  <path d="m1216.95,289.03c15.9-4.8,20.91-8.15,27.43-4.97,3.46,1.69,5.81,3.77,8.38,8.85,5.51,10.91,8.53,23.49,10.35,35.69.88,5.89-2.85,12.78-5.56,18.73-1.09,2.4-4.86,4.52-7.71,5.01-15.47,2.69-31.13,4.38-46.56,7.26-22.13,4.13-44.24,8.46-66.12,13.72-18.15,4.37-35.97,10.13-53.89,15.44-10.25,3.04-22.01-.55-27.44-9.65-7.02-11.75-10.57-25.09-6.89-38.18,8.56-30.39,8.63-61.24,6.46-92.11-2.19-31.05-6.71-61.93-9.42-92.95-2.16-24.73-3.09-49.57-4.69-74.35-.35-5.49-1.87-10.97-1.7-16.41.19-5.68.79-11.72,2.93-16.9,6.11-14.81,14.36-17.06,27.71-8.52,1.39.89,2.78,1.78,5.1,3.28,13.74-12.91,30.77-14.41,48.11-15.09,26.52-1.04,53.04-3,79.56-3.07,15.94-.04,31.89,2.79,47.83,4.3,11,1.04,17.71,6.99,20.19,17.67,1.06,4.55,2.48,9.12,2.71,13.73.86,17.11-6.85,24.68-24.1,24.48-27.38-.31-54.82-1.58-82.14-.4-22.21.96-44.28,4.98-66.43,7.49-7.07.8-9.14,5.08-8.94,11.4.63,19.28,1.23,38.57,1.86,58.58,16.99-1.31,32.83-2.76,48.7-3.7,26.2-1.56,52.4-3.25,78.63-4,20.08-.58,28.55,8.38,29.12,28.71.11,3.87.17,7.74.07,11.61-.32,12.14-6.22,17.97-18.53,18.66-41.12,2.29-82.23,4.75-123.36,6.83-5.94.3-7.36,2.41-7.22,8.03.68,25.69,1.11,51.4,1.26,77.1.04,6.91,2.29,9.22,9.35,8.42,9.6-1.08,14.43-1.27,15.89-1.69,6-1.7,18.14-3.53,44.79-4.31.92-.97,2.32-2.37,4.14-3.91,10.84-9.18,19.1-8.45,40.12-14.79Z"/>
  <path d="m1375.89,340.94c2.63-10.25,9.3-8.98,15.65-9.28,32.86-1.56,65.72-3.28,98.56-5.17,13.27-.76,15.34-4.24,12.12-16.55-5.71-21.8-11.65-43.57-16.22-65.62-2.67-12.88-2.36-26.35-4.31-39.41-1.9-12.68-4.17-14.63-16.52-14.53-20.44.17-40.98.07-61.28,2.04-9.8.95-19.46,5.7-28.63,9.93-5.98,2.76-11.52,3.22-16.44-.18-8.17-5.66-14.23-12.06-15.32-23.78-1.51-16.29-6.8-32.22-10.23-48.36-5.43-25.6-10.77-51.22-15.79-76.9-.51-2.61,1.31-5.72,2.19-8.56,1.44-4.61,3.13-9.15,4.46-13.79,2.16-7.5,5.58-14.22,13.8-15.98,12.12-2.6,24.4-4.55,36.65-6.48,6.27-.99,12.79-.64,18.93-2.07,31.37-7.31,63.41-3.73,95.08-6.15,13.7-1.05,23.07,8,24.64,21.49.6,5.2,1,10.47.99,15.7-.05,17.23-10.06,27.07-27.35,27.09-25.18.02-50.37-.32-75.54.14-10.17.18-20.31,2.05-30.46,3.17-5.19.58-8.12,3.06-7.37,8.73,1.88,14.18,3.66,28.38,5.56,42.56.91,6.77,5.06,8.85,11.64,8.74,17.43-.3,34.89-.63,52.3.05,14.62.58,29.33,1.68,43.72,4.15,18.91,3.26,35,14.43,38.09,36.74,4.19,30.3,9.64,60.42,14.98,90.55,1.53,8.63,4.99,16.91,6.77,25.51,5.28,25.51,4.25,51.07-.14,76.62-2.04,11.88-9.33,19.06-20.12,23.2-21.24,8.15-43.61,10.38-65.99,10.43-27.91.05-55.82-1.56-83.73-2.45-15.21-.48-27.77-9.63-32.11-24.23-2.19-7.37-3.98-15.01-4.61-22.64-.87-10.4,4.13-15.2,14.64-15.77,1.1-.06,2.21-.06,3.32-.04,7.61.14,16.51-2.15,18.08,11.09Z"/>
  <path d="m1021.1,271.77c-1.67,26.67-3.07,52.61-5,78.5-.86,11.53-2.58,23.01-4.29,34.46-1.69,11.31-7.65,15.78-18.9,14.83-12.86-1.09-21.08-10.65-21.23-23.45-.18-15.11-1.75-30.21-1.54-45.3.21-15.17,2.67-30.31,2.7-45.47.03-17.04.2-34.4-2.93-51.02-3.18-16.91-9.72-33.29-15.83-49.52-13.29-35.28-20.51-71.48-19.1-109.27.23-6.07-.13-12.17.09-18.24.33-9.38,9.89-20.98,18.89-22.87,1.74-.37,4.03-.13,5.53.74,12.92,7.52,21.58,17.93,22.03,33.65.29,10.21-.77,20.68,1.15,30.57,3.29,16.97,8.33,33.6,12.81,50.33,5.27,19.69,8.97,40.04,16.59,58.79,8.55,21.01,9.49,42.19,9.05,63.27Z"/>
  <path d="m433.17,308.66c.03,14.71-4.26,21.09-15.81,25.36-1.72.63-3.83.88-5.61.55-10.66-2-19.78-13.07-21.93-23.45-3.51-16.91-8.31-33.56-12.44-50.35-1.31-5.31-2.53-10.67-3.22-16.08-.76-6-.35-12.17-1.38-18.11-1.99-11.52-.6-14.61,10.97-20.49,11.45-5.82,15.63-5.17,23.44,3.16,6.78,7.24,11.11,15.45,12.84,25.37,3.87,22.17,8.34,44.24,12.45,66.37.6,3.23.61,6.58.7,7.66Z"/>
</svg>